{"title":"Teen Wolf Season 4 EP6 Orphaned 1080P WEB-DL","uid":10653227,"size":1545272881,"categoryP":"video","categoryS":"hd___tv_shows","magnet":"?xt=urn:btih:cb927bffeb9d95c56c74cbe7fbc7c7f89c6dd2af&amp;dn=Teen+Wolf+Season+4+EP6+Orphaned+1080P+WEB-DL&amp;tr=udp%3A%2F%2Ftracker.openbittorrent.com%3A80&amp;tr=udp%3A%2F%2Fopen.demonii.com%3A1337&amp;tr=udp%3A%2F%2Ftracker.coppersurfer.tk%3A6969&amp;tr=udp%3A%2F%2Fexodus.desync.com%3A6969","seeders":7,"leechers":0,"uploader":"jmanwf","files":2,"time":1406642972,"description":"Scott is forced into helping a dangerous enemy; Derek and Malia track an old ally\n\n\n\nFormat : MPEG-4\nFormat profile : Base Media / Version 2\nCodec ID : mp42\nFile size : 1.44 GiB\nDuration : 41mn 55s\nOverall bit rate mode : Variable\nOverall bit rate : 4 913 Kbps\nMovie name : Orphaned\nAlbum : Teen Wolf, Season 4\nPart/Position : 1\nPart/Total : 1\nTrack name/Position : 6\nTrack name/Total : 8\nVideo\nID : 2\nFormat : AVC\nFormat/Info : Advanced Video Codec\nFormat profile : &lt;a class=&quot;__cf_email__&quot; href=&quot;/cdn-cgi/l/email-protection&quot; data-cfemail=&quot;fbb3929c93bbb7cfd5cb&quot;&gt;[email&amp;#160;protected]&lt;/a&gt;&lt;script cf-hash='f9e31' type=&quot;text/javascript&quot;&gt;\n/* &lt;![CDATA[ */!function(){try{var t=&quot;currentScript&quot;in document?document.currentScript:function(){for(var t=document.getElementsByTagName(&quot;script&quot;),e=t.length;e--;)if(t[e].getAttribute(&quot;cf-hash&quot;))return t[e]}();if(t&amp;&amp;t.previousSibling){var e,r,n,i,c=t.previousSibling,a=c.getAttribute(&quot;data-cfemail&quot;);if(a){for(e=&quot;&quot;,r=parseInt(a.substr(0,2),16),n=2;a.length-n;n+=2)i=parseInt(a.substr(n,2),16)^r,e+=String.fromCharCode(i);e=document.createTextNode(e),c.parentNode.replaceChild(e,c)}}}catch(u){}}();/* ]]&gt; */&lt;/script&gt;\nFormat settings, CABAC : Yes\nFormat settings, ReFrames : 4 frames\nCodec ID : avc1\nCodec ID/Info : Advanced Video Coding\nDuration : 41mn 55s\nBit rate : 4 783 Kbps\nWidth : 1 916 pixels\nHeight : 1 076 pixels\nDisplay aspect ratio : 16:9\nFrame rate : 23.976 fps\nColor space : YUV\nChroma subsampling : 4:2:0\nBit depth : 8 bits\nScan type : Progressive\nBits/(Pixel*Frame) : 0.097\nStream size : 1.40 GiB (97%)\nLanguage : English\nEncoded date : UTC 2014-07-29 08:09:41\nTagged date : UTC 2014-07-29 08:10:41\nColor primaries : BT.709\nTransfer characteristics : BT.709\nMatrix coefficients : BT.709\n\nAudio\nID : 1\nFormat : AAC\nFormat/Info : Advanced Audio Codec\nFormat profile : LC\nCodec ID : 40\nDuration : 41mn 55s\nBit rate mode : Variable\nBit rate : 127 Kbps\nMaximum bit rate : 194 Kbps\nChannel(s) : 2 channels\nChannel positions : Front: L R\nSampling rate : 48.0 KHz\nCompression mode : Lossy\nStream size : 37.9 MiB (3%)\nLanguage : English\nEncoded date : UTC 2014-07-29 08:07:36\nTagged date : UTC 2014-07-29 08:09:40","torrent":{"xt":"urn:btih:cb927bffeb9d95c56c74cbe7fbc7c7f89c6dd2af","amp;dn":"Teen+Wolf+Season+4+EP6+Orphaned+1080P+WEB-DL","amp;tr":["udp%3A%2F%2Ftracker.openbittorrent.com%3A80","udp%3A%2F%2Fopen.demonii.com%3A1337","udp%3A%2F%2Ftracker.coppersurfer.tk%3A6969","udp%3A%2F%2Fexodus.desync.com%3A6969"],"infoHash":"cb927bffeb9d95c56c74cbe7fbc7c7f89c6dd2af","infoHashBuffer":{"type":"Buffer","data":[203,146,123,255,235,157,149,197,108,116,203,231,251,199,199,248,156,109,210,175]},"announce":[],"urlList":[]}}